<?xml version="1.0" encoding="utf-8"?>
<!-- Generator: Adobe Illustrator 25.2.3, SVG Export Plug-In . SVG Version: 6.00 Build 0)  -->
<svg version="1.1" xmlns="http://www.w3.org/2000/svg" xmlns:xlink="http://www.w3.org/1999/xlink" x="0px" y="0px"
	 viewBox="0 0 2834.65 2834.65" style="enable-background:new 0 0 2834.65 2834.65;" xml:space="preserve">
<style type="text/css">
	.st0{display:none;}
	.st1{fill:#FAFAFA;}
	.st2{fill:#B3B2B2;}
</style>
<g id="Layer_1" class="st0">
</g>
<g id="Layer_2">
	<circle class="st1" cx="1417.32" cy="1417.32" r="970.17"/>
	<path class="st2" d="M1891.35,1357.76l-418.18,418.18c-29.55,29.55-77.47,29.55-107.02,0h0c-29.55-29.55-29.55-77.47,0-107.02
		l418.18-418.18c29.55-29.55,77.47-29.55,107.02,0l0,0C1920.9,1280.29,1920.9,1328.2,1891.35,1357.76z"/>
	<path class="st2" d="M1361.48,1775.93L943.3,1357.76c-29.55-29.55-29.55-77.47,0-107.02l0,0c29.55-29.55,77.47-29.55,107.02,0
		l418.18,418.18c29.55,29.55,29.55,77.47,0,107.02h0C1438.94,1805.49,1391.03,1805.49,1361.48,1775.93z"/>
</g>
</svg>
