<svg id="Layer_1" data-name="Layer 1" xmlns="http://www.w3.org/2000/svg" viewBox="0 0 391.95 391.95"><defs><style>.cls-1{fill:#fff;}</style></defs><g id="J8B4P3"><path class="cls-1" d="M74.88,215.92V203h9.4l19.77,20.86,126.11,132.9q53,55.91,106.08,111.82,56.58,59.63,113.18,119.23c2.23,2.35,4.4,4.76,6.61,7.14h-21.6a12.61,12.61,0,0,0-.85-1.08q-6.63-7-13.27-14-62.88-66.23-125.74-132.45Q242.25,392.28,190,337.13L121,264.52Z" transform="translate(-74.88 -203.02)"/><path class="cls-1" d="M466.83,583.48c-2.59-2.65-5.22-5.27-7.77-8q-41.49-43.69-83-87.41-63.77-67.2-127.54-134.41L126.42,225l-20.88-22h21.6q37.58,39.61,75.15,79.23,60.95,64.23,121.93,128.46,57.6,60.69,115.23,121.38,13.67,14.38,27.38,28.74Z" transform="translate(-74.88 -203.02)"/><path class="cls-1" d="M74.88,238.56c4.66,4.85,9.35,9.67,14,14.55q44.31,46.67,88.59,93.34Q244,416.56,310.51,486.67q47.28,49.83,94.6,99.65c2.71,2.86,5.38,5.77,8.06,8.65h-21.6c-.32-.4-.62-.83-1-1.21l-14.13-14.91q-46.62-49.11-93.25-98.23Q219.4,413.38,155.6,346.12q-31.23-32.89-62.44-65.8c-6.07-6.39-12.19-12.74-18.28-19.11Z" transform="translate(-74.88 -203.02)"/><path class="cls-1" d="M466.83,538.18c-1.16-1.1-2.37-2.16-3.47-3.32L359.44,425.38,233.38,292.52q-42-44.2-83.9-88.39a7.65,7.65,0,0,1-.74-1.11h21.6a7.6,7.6,0,0,0,.73,1.11q22.82,24.06,45.66,48.11L349.39,392q55.13,58.09,110.27,116.18c2.35,2.48,4.77,4.88,7.17,7.32Z" transform="translate(-74.88 -203.02)"/><path class="cls-1" d="M74.88,283.85c.71.65,1.47,1.26,2.13,2q57.3,60.33,114.59,120.7Q259.19,477.73,326.76,549l42.66,44.95c.32.34.6.7.9,1.05h-21.6c-.45-.53-.87-1.08-1.34-1.58l-70.11-73.87-91.34-96.21L85,317c-3.35-3.53-6.77-7-10.16-10.48Z" transform="translate(-74.88 -203.02)"/><path class="cls-1" d="M466.83,493.24q-13-13.68-26.05-27.38Q407,430.25,373.15,394.63l-100.59-106L193,204.75c-.5-.53-.92-1.15-1.38-1.73h21.6a16.46,16.46,0,0,0,1.11,1.49L335,331.69,466.83,470.6Z" transform="translate(-74.88 -203.02)"/><path class="cls-1" d="M74.88,328.8Q89.94,344.63,105,360.45q61.85,65.15,123.67,130.31,49,51.59,97.89,103.17c.32.34.61.7.92,1h-21.6c-.34-.39-.66-.81-1-1.19L239.78,525.2q-35.11-37-70.24-74Q124.72,404,79.9,356.74c-1.62-1.7-3.35-3.3-5-4.95Z" transform="translate(-74.88 -203.02)"/><path class="cls-1" d="M466.83,448c-4-4.13-8-8.24-11.94-12.4q-38.83-40.89-77.66-81.8L294.8,266.86q-29.66-31.25-59.33-62.49a16,16,0,0,1-1-1.35h21.61a10.82,10.82,0,0,0,.88,1.22q38.34,40.42,76.7,80.83,55.25,58.21,110.5,116.42,11.33,11.94,22.7,23.81Z" transform="translate(-74.88 -203.02)"/><path class="cls-1" d="M74.88,374.09C78.7,378,82.56,382,86.35,386q29.25,30.8,58.47,61.62L262.36,571.46Q273.51,583.2,284.61,595H263c-.22-.26-.42-.55-.66-.8l-68.06-71.73q-46.8-49.31-93.61-98.6-12.89-13.57-25.8-27.11Z" transform="translate(-74.88 -203.02)"/><path class="cls-1" d="M466.83,402.66c-2.76-2.8-5.56-5.55-8.26-8.39q-35.07-36.91-70.1-73.86L281.85,208c-1.55-1.64-3-3.33-4.55-5h21.6a15.64,15.64,0,0,0,1,1.36q35.22,37.14,70.45,74.26,44,46.41,88.08,92.8c2.75,2.89,5.57,5.72,8.37,8.57Z" transform="translate(-74.88 -203.02)"/><path class="cls-1" d="M74.88,419.38c2.15,2.17,4.35,4.29,6.45,6.51q46.22,48.66,92.41,97.33l67.11,70.71c.31.34.61.7.91,1h-21.6l-3.57-3.8-130-137c-3.87-4.07-7.81-8.09-11.71-12.13Z" transform="translate(-74.88 -203.02)"/><path class="cls-1" d="M466.83,357.71q-14.46-15.19-28.91-30.39l-86.25-90.9q-15.21-16-30.44-32.06c-.39-.41-.72-.89-1.08-1.34h21.6a17.12,17.12,0,0,0,1.07,1.35L369.9,232.9q47.82,50.39,95.62,100.77a12.29,12.29,0,0,0,1.31,1.05Z" transform="translate(-74.88 -203.02)"/><path class="cls-1" d="M74.88,464.67c1,1,2.13,1.9,3.11,2.94q59.81,63,119.59,126a13.3,13.3,0,0,1,1,1.35H177.31l-21-22.11q-40.08-42.24-80.17-84.48a13.34,13.34,0,0,0-1.3-1.06Z" transform="translate(-74.88 -203.02)"/><path class="cls-1" d="M466.83,312.42c-4.89-5.1-9.81-10.19-14.67-15.32q-44-46.37-88.05-92.76c-.39-.41-.74-.87-1.11-1.32h21.6c.33.41.63.83,1,1.21l80,84.27a10.2,10.2,0,0,0,1.21.93Z" transform="translate(-74.88 -203.02)"/><path class="cls-1" d="M74.88,509.62q11.46,12,22.93,24,28.39,29.9,56.77,59.83c.42.45.75,1,1.13,1.48H134.45q-11.13-11.73-22.28-23.48L74.88,532.26Z" transform="translate(-74.88 -203.02)"/><path class="cls-1" d="M466.83,267.13c-2.67-2.72-5.37-5.41-8-8.17q-25.87-27.24-51.73-54.5c-.43-.46-.83-1-1.25-1.44h21.6c.37.44.73.9,1.12,1.32q10.23,10.78,20.47,21.56,8.86,9.32,17.78,18.58Z" transform="translate(-74.88 -203.02)"/><path class="cls-1" d="M74.88,554.91c2.58,2.64,5.19,5.26,7.74,7.94Q97.42,578.41,112.2,594a6.32,6.32,0,0,1,.65,1H91.25a1.45,1.45,0,0,0-.18-.48Q83,586,74.88,577.55Z" transform="translate(-74.88 -203.02)"/><path class="cls-1" d="M466.83,222.19,448.71,203h18.12Z" transform="translate(-74.88 -203.02)"/></g></svg>