<?xml version="1.0" encoding="utf-8"?>
<!-- Generator: Adobe Illustrator 25.2.3, SVG Export Plug-In . SVG Version: 6.00 Build 0)  -->
<svg version="1.1" id="Layer_1" xmlns="http://www.w3.org/2000/svg" xmlns:xlink="http://www.w3.org/1999/xlink" x="0px" y="0px"
	 viewBox="0 0 2834.6 2834.6" style="enable-background:new 0 0 2834.6 2834.6;" xml:space="preserve">
<style type="text/css">
	.st0{display:none;}
</style>
<g id="Layer_1_1_" class="st0">
</g>
<g id="Layer_2_1_">
	<g>
		<polygon points="943.7,2563.3 1224.1,2314.9 1224.1,1606.1 943.7,1606.1 		"/>
		<polygon points="2343.2,1274.3 1634.3,1274.3 1634.3,1554.7 2591.6,1554.7 		"/>
		<polygon points="1770.4,1606.1 1770.4,1886.6 2423.6,1886.6 2155.7,1606.1 		"/>
		<path d="M523.4,1138.9V462.6c421.8,0,763.8,342,763.8,763.8h280.9c0-577-467.7-1044.7-1044.7-1044.7l0,0L243.1,430.1v708.8v135.4
			v280.3h981v-280.3H523.4V1138.9z"/>
		<path d="M1564.1,1608.3h-280.9c0,577,467.7,1044.7,1044.7,1044.7v-281C1906,2372,1564.1,2030.1,1564.1,1608.3z"/>
	</g>
</g>
</svg>
