<?xml version="1.0" encoding="utf-8"?>
<!-- Generator: Adobe Illustrator 25.2.3, SVG Export Plug-In . SVG Version: 6.00 Build 0)  -->
<svg version="1.1" id="Layer_1" xmlns="http://www.w3.org/2000/svg" xmlns:xlink="http://www.w3.org/1999/xlink" x="0px" y="0px"
	 viewBox="0 0 363.8 83.5" style="enable-background:new 0 0 363.8 83.5;" xml:space="preserve">
<style type="text/css">
	.st0{fill:#FFFFFF;}
	.st1{enable-background:new    ;}
</style>
<g id="RNuIJd">
	<path class="st0" d="M85.6,45.8V20.7c0.5,0,0.9-0.1,1.3-0.1h25.6c6.1,0,11.3,4.5,12.1,10.6c1,6.5-2.5,12.4-8.4,14.2
		c-0.8,0.3-1.7,0.4-2.6,0.5c-9.1,0-18.2,0-27.2,0C86.1,45.8,85.9,45.8,85.6,45.8z M99.3,39.8c2,0,3.9,0.1,5.8,0
		c3.2-0.2,5.8-2.8,5.9-6c0.2-3.2-1.6-6.2-4.5-6.7c-2.4-0.2-4.7-0.2-7.1-0.1V39.8z"/>
	<path class="st0" d="M228.8,30.1v-9.4h13.6v25.1h-13.6v-9.4h-11.2v9.4h-13.6V20.7c0.4,0,0.7-0.1,1.1-0.1c3.8,0,7.5,0,11.2,0
		c1.1,0,1.3,0.4,1.3,1.4c-0.1,2.2,0,4.5,0,6.8v1.3H228.8z"/>
	<path class="st0" d="M61.2,46.8c-4.1,0.1-8.1-0.7-11.9-2.2c-7.8-3.5-10-13.9-4.2-19.8c2.4-2.3,5.5-3.8,8.8-4.3
		c6.2-1.3,12.7-1.1,18.9,0.6c3.8,1.1,6.9,3.1,8.6,6.9c2.9,6.1,0.3,13.4-5.8,16.4C72.1,46,67.6,46.9,61.2,46.8z M68.6,33.6
		c0-0.8,0-1.3-0.1-1.8c-0.3-2.9-1.7-4.8-4-5.3c-1.2-0.3-2.4-0.4-3.6-0.3c-2.3,0.2-4.1,1.2-4.9,3.6c-0.7,2.2-0.7,4.6,0,6.9
		c0.4,1.6,1.6,2.9,3.2,3.3c1.6,0.3,3.2,0.4,4.8,0.2c2.4-0.3,3.8-2,4.2-4.3C68.5,35,68.5,34.1,68.6,33.6z"/>
	<path class="st0" d="M271.4,20.7h13.7v1.4c0,3.6-0.1,7.2,0,10.9c0.2,7.3-3,11.4-10.3,13c-7,1.5-14,1.5-20.8-0.8
		c-5-1.7-7.4-5.2-7.5-10.5c-0.1-4.3,0-8.7,0-13c0-0.3,0-0.6,0.1-0.9h13.6v14c0,2,0.2,4,2.2,4.9c2.2,1.2,4.9,1.1,7-0.2
		c1.6-1,1.9-2.6,1.9-4.4c0-4.3,0-8.7,0-13L271.4,20.7z"/>
	<path class="st0" d="M325.1,20.7h13.5c0,0.5,0.1,1,0.1,1.5v12.6c0,2,0.2,4,2.2,4.9c2.2,1.2,4.9,1.1,7-0.2c1.6-1,1.9-2.7,1.9-4.4
		c0-4.3,0-8.6,0-12.9v-1.5h13.6c0,0.4,0.1,0.8,0.1,1.3c0,3.7,0,7.4,0,11.1c0,7.4-2.8,11.1-10.1,12.8c-6.9,1.7-14.2,1.4-20.9-0.8
		c-4.9-1.7-7.4-5.3-7.5-10.5c-0.1-4.3,0-8.7,0-13C325,21.3,325.1,21,325.1,20.7z"/>
	<path class="st0" d="M128.1,20.7h34.1v5.6h-20.4v4h18.3c-0.3,1.8-0.5,3.4-0.9,5c-0.1,0.2-0.8,0.5-1.2,0.5c-4.9,0-9.8,0-14.7,0h-1.5
		v3.6h20.4v6.3H128L128.1,20.7z"/>
	<path class="st0" d="M39.7,35.8c-0.4,3.3-2.3,6.1-5.2,7.8c-2.8,1.7-5.9,2.7-9.2,2.9c-4.9,0.7-9.8,0.4-14.6-0.7
		c-3.4-0.9-6.5-2.3-8.6-5.4c-3.9-5.8-2.4-13.6,3.4-17.5c0.6-0.4,1.3-0.8,2-1.1c4.7-2,9.7-2.4,14.8-2.1c3.5,0.1,7,0.8,10.3,2.1
		c3.8,1.5,6.5,4.9,7,8.9c-0.3,0.1-0.6,0.1-0.9,0.1c-3.9,0-7.8,0-11.6,0c-0.4,0-1.1-0.4-1.2-0.7c-0.9-3.7-4.2-4.5-7.4-3.9
		c-2.8,0.5-4,1.9-4.4,4.7c-0.4,2.1-0.3,4.3,0.5,6.4c0.5,1.4,1.7,2.5,3.2,2.7c1.4,0.2,2.9,0.2,4.3,0.1c2-0.2,3.1-1.7,3.7-3.6
		c0.1-0.4,0.7-0.9,1-0.9c4.1-0.1,8.2,0,12.4,0C39.4,35.7,39.5,35.7,39.7,35.8z"/>
	<path class="st0" d="M189.8,45.8h-13.7v-19c-0.6,0-1.1-0.1-1.6-0.1c-3,0-6.1,0-9.1,0c-0.9,0-1.2-0.3-1.2-1.2c0.1-1.6,0-3.2,0-4.9
		h37.3v6.1h-11.7V45.8z"/>
	<path class="st0" d="M289.1,20.6h13.5v19.2h20.6v5.9h-34.1V20.6z"/>
	<path class="st0" d="M165,1.7v5.2h9.9c1.8,0,2.4,0.7,1.8,2.5c-0.1,0.2-0.4,0.4-0.9,0.6l-0.1-2.4h-11.8c0-2.2,0-4.2,0-6.2
		c0-0.2,0.3-0.5,0.5-0.5c0.3,0,0.7,0,1,0c11.6,0,23.1,0,34.7,0c1.3,0,1.7,0.3,1.6,1.6c-0.1,1.6,0,3.3,0,5.1H190c0,0.6,0,1.2,0,1.8
		c0,0.2-0.3,0.3-0.5,0.5c-0.1-0.2-0.3-0.3-0.4-0.5c-0.1-0.1,0-0.2,0-0.4C189,7,189,7,191,7h9.7V1.8L165,1.7z"/>
	<path class="st0" d="M142.1,7.3v2.3c-1.1,0.2-1.2-0.2-0.9-3h20.3v-5h-32.6c0,0.4-0.1,0.9-0.1,1.3c0,2,0,4.1,0,6.1
		c0,0.2-0.3,0.5-0.4,0.7c-0.2-0.2-0.5-0.4-0.5-0.6c0-2.5,0-5.1,0-7.6c0-0.2,0.4-0.5,0.6-0.7c0.3-0.1,0.6-0.1,0.9,0
		c10.6,0,21.2,0,31.7,0c1.2,0,1.6,0.3,1.6,1.5c-0.1,1.1-0.1,2.2,0,3.4c0.1,1.3-0.4,1.6-1.6,1.6c-5.8-0.1-11.7,0-17.5,0L142.1,7.3z"
		/>
	<path class="st0" d="M141.1,58.4c0.8,0.1,1.6,0.2,2.4,0.2c5.9,0,11.8,0,17.7,0c1.1,0,1.4,0.4,1.4,1.4c-0.1,1.4-0.1,2.8,0,4.2
		c0.1,1-0.3,1.3-1.3,1.3c-7.7,0-15.3,0-23,0c-3.1,0-6.2,0-9.4,0c-0.8,0-1.2-0.2-1.1-1.1c0.1-1.8,0-3.5,0-5.2c0-0.3,0.3-0.6,0.5-0.9
		c0.1,0.3,0.4,0.6,0.4,0.9c0,1.8,0,3.6,0,5.6h32.7v-5.5h-1.3c-6,0-11.9,0-17.9,0C141.8,59.3,141,59.6,141.1,58.4z"/>
	<path class="st0" d="M289.3,58.2c0.2,0.3,0.5,0.6,0.5,0.9c0,1.9,0,3.7,0,5.7c0.5,0,1,0.1,1.4,0.1c10,0,20,0,30,0
		c1.3,0,1.7-0.4,1.6-1.6s0-2.4,0-3.7c-0.5,0-1-0.1-1.4-0.1h-18c-0.8,0-1.5-0.1-1.1-1.3c1.6,1.5,3.5,0.8,5.3,0.8
		c4.8,0.1,9.6,0,14.4,0h1.6c0,2,0,3.9,0,5.8c0,0.2-0.3,0.5-0.6,0.6c-0.3,0.1-0.7,0.1-1,0c-10.5,0-21,0-31.5,0
		c-1.2,0-1.7-0.3-1.6-1.6c0.1-1.8,0-3.7,0-5.5L289.3,58.2z"/>
	<path class="st0" d="M124.4,9.7c-0.8,0.4-1-0.2-1.2-0.8c-1.4-3.8-4.7-6.6-8.7-7.3c-0.6-0.1-1.2-0.1-1.9-0.1H87.6
		c-0.3,0-0.7,0-1.2,0.1c0,2.2,0,4.4,0,6.6c-0.1,0.5-0.3,1.1-0.5,1.5c-0.2-0.5-0.4-1-0.5-1.6c-0.1-2.1,0-4.2,0-6.2
		c0-0.9,0.3-1.1,1.2-1.1c8.8,0,17.6,0,26.4,0C118.3,0.9,123,4.5,124.4,9.7z"/>
	<path class="st0" d="M123.9,58.5c-1.6,3.5-4.8,6.1-8.6,6.8c-1.1,0.2-2.1,0.3-3.2,0.2c-8.3,0-16.6,0-24.8,0h-1.8v-3
		c0-1.1,0-2.2,0-3.2c0.1-0.4,0.2-0.7,0.4-1c0.2,0.3,0.5,0.7,0.5,1c0.1,1.4,0,2.8,0,4.1c0,0.4,0,0.8,0.1,1.3c0.4,0,0.8,0.1,1.2,0.1
		h25.2c4,0.1,7.7-2.1,9.6-5.6C122.8,58.8,122.9,58.1,123.9,58.5z"/>
	<path class="st0" d="M81.8,9.9c-0.3-0.2-0.7-0.3-0.8-0.6c-1.7-4.4-5.2-6.5-9.4-7.5c-6.5-1.7-13.4-1.6-19.8,0.3
		c-3.8,1.1-6.8,3.2-8.3,7.1c-0.1,0.3-0.6,0.5-1,0.6c0.5-2.3,1.8-4.4,3.8-5.8c2.9-2.1,6.3-3.3,9.8-3.6c5.2-0.8,10.6-0.5,15.7,0.7
		C75,2,78,3.3,80.1,6c0.8,1.1,1.5,2.3,2.2,3.6L81.8,9.9z"/>
	<path class="st0" d="M0.9,9.9c0.4-2.5,1.8-4.7,3.9-6.2c2.8-1.9,6-3.1,9.4-3.4c5.2-0.7,10.4-0.5,15.5,0.7c4.3,1.1,7.9,3.1,9.7,7.4
		c0.1,0.3,0.2,0.5,0.3,0.8c0,0.2,0,0.4,0,0.6c-0.4-0.2-0.9-0.4-1-0.6C36.9,4.6,33,2.5,28.3,1.5c-5.8-1.3-11.8-1.2-17.6,0.4
		C6.7,3,3.4,5.1,1.8,9.3C1.7,9.6,1.2,9.7,0.9,9.9z"/>
	<path class="st0" d="M43.2,58.2c0.3,0.2,0.8,0.3,0.9,0.5c2.2,3.7,5.6,5.3,9.6,6.2c6.4,1.5,13.1,1.3,19.4-0.7c3-0.8,5.5-2.8,7.1-5.4
		c0.3-0.3,0.7-0.5,1.1-0.5c-0.5,1.6-1.5,2.9-2.9,3.9c-2.3,1.7-5,2.9-7.8,3.4c-6.3,1.4-12.9,1.1-19.1-0.6c-3.1-0.8-5.9-2.6-7.8-5.2
		c-0.2-0.3-0.3-0.6-0.5-0.9c-0.1-0.1-0.1-0.3-0.2-0.5L43.2,58.2z"/>
	<path class="st0" d="M1.2,58.2c0.5,0.2,1,0.2,1.2,0.5c2.3,4.2,6.3,5.8,10.7,6.5c5.6,1.1,11.5,0.9,17-0.7c3.2-0.8,6-2.8,7.8-5.6
		c0.3-0.3,0.7-0.5,1.1-0.6c-1,2.4-2.8,4.4-5.1,5.5c-2.7,1.4-5.7,2.2-8.8,2.4c-5.2,0.7-10.5,0.3-15.5-1.2c-3.1-0.8-5.8-2.7-7.6-5.4
		c-0.2-0.2-0.3-0.5-0.4-0.8C1.4,58.7,1.3,58.5,1.2,58.2z"/>
	<path class="st0" d="M241.9,1.6h-12.2v3.9c0,1.2,0,2.3,0,3.5c0,0.3-0.3,0.5-0.5,0.8c-0.1-0.3-0.4-0.5-0.5-0.8c0-1.6,0-3.3,0-4.9
		c0-3.3,0-3.3,3.2-3.3s6.5,0,9.7,0c0.9,0,1.2,0.3,1.2,1.2c0,2.3,0,4.6,0,6.9c0,0.3-0.4,0.6-0.5,0.9c-0.1-0.3-0.4-0.6-0.4-0.9
		c0-2,0-3.9,0-5.9L241.9,1.6z"/>
	<path class="st0" d="M204.8,1.6c0,2.5,0,4.8,0,7.2c-0.1,0.4-0.2,0.7-0.4,1c-0.2-0.3-0.5-0.6-0.5-1c-0.1-2.3,0-4.6,0-6.9
		c0-0.9,0.3-1.1,1.2-1.1c3.9,0,7.9,0,11.9,0c0.9,0,1.3,0.2,1.2,1.2c-0.1,2.3,0,4.6,0,6.9c0,0.6,0,1.1-1,0.8V1.7L204.8,1.6z"/>
	<path class="st0" d="M260.5,1.2c0,2.6,0,5.3,0,8c0,0.3-0.3,0.5-0.5,0.8l-0.4-0.2V1.6h-12.3v8L247,9.9c-0.2-0.3-0.6-0.5-0.6-0.8
		c-0.1-2.5-0.1-5,0-7.5c0.1-0.3,0.4-0.6,0.7-0.7c4.3,0,8.6,0,12.9,0.1C260.1,1,260.3,1.1,260.5,1.2z"/>
	<path class="st0" d="M247.4,58.2c0.3,0.2,0.8,0.3,0.9,0.6c1.7,3.5,4.8,5.2,8.4,6c6.6,1.6,13.6,1.4,20.1-0.5
		c2.9-0.8,5.4-2.8,6.7-5.5c0.1-0.2,0.5-0.4,0.9-0.8c-0.7,2.4-2.3,4.4-4.4,5.5c-2.6,1.5-5.4,2.3-8.4,2.5c-3.1,0.2-6.3,0.3-9.5,0.2
		c-3.4-0.1-6.7-0.8-9.7-2.2c-2.4-1.1-4.3-3.1-5.2-5.5L247.4,58.2z"/>
	<path class="st0" d="M325.8,58.1c0.4,0.3,0.7,0.4,0.8,0.6c1.8,3.6,4.8,5.3,8.5,6.1c6.7,1.6,13.7,1.4,20.2-0.6
		c2.9-0.8,5.2-2.8,6.5-5.4c0.2-0.3,0.5-0.5,0.8-0.5c-0.5,1.9-1.6,3.5-3.3,4.6c-2.7,1.8-5.8,2.9-9,3.1c-3.2,0.3-6.4,0.4-9.6,0.2
		c-4.1-0.2-8.1-0.9-11.6-3.4C327.5,61.8,326.3,60.1,325.8,58.1z"/>
	<path class="st0" d="M302.1,1.6h-12.4c0,2.5,0,4.9,0,7.3c0,0.6-0.1,1-0.9,0.8V1.1c0.4-0.1,0.9-0.1,1.3-0.2c3.8,0,7.6,0,11.4,0
		c1,0,1.4,0.3,1.4,1.3c-0.1,2.2,0,4.4,0,6.6c-0.1,0.3-0.2,0.7-0.3,1l-0.4-0.1L302.1,1.6z"/>
	<path class="st0" d="M203.9,65.3c0-2.1,0-4.2,0-6.4c0-0.2,0.4-0.5,0.6-0.7l0.3,0.2v6.4H217c0-1.9,0-3.7,0-5.6c0-0.8,0-0.8,1-0.7
		c0,2.1,0,4.2,0,6.4c-0.1,0.3-0.4,0.6-0.7,0.7c-4.4,0-8.8,0-13.1,0C204.1,65.5,204,65.4,203.9,65.3z"/>
	<path class="st0" d="M189,64.8v-6.3l0.3-0.2c0.2,0.2,0.6,0.5,0.6,0.7c0.1,2,0.1,3.9,0,5.9c-0.1,0.4-0.4,0.6-0.8,0.7
		c-4.2,0-8.3,0-12.5,0c-0.4-0.1-0.7-0.3-0.8-0.7c-0.1-2.1,0-4.2,0-6.3c0.9-0.4,1,0.1,1,0.7c0,1.8,0,3.6,0,5.6L189,64.8z"/>
	<path class="st0" d="M229.8,64.8H242v-4.7c0-0.4,0-0.7,0-1.1c0.1-0.2,0.3-0.4,0.5-0.7c0.1,0.2,0.4,0.4,0.4,0.6c0,2.2,0,4.3,0,6.6
		h-2.3c-3.6,0-7.2,0-10.7,0c-0.8,0-1.1-0.2-1.1-1.1c0-1.8,0-3.6,0-5.4c0-0.3,0.3-0.5,0.5-0.8c0.2,0.3,0.5,0.5,0.5,0.8
		C229.8,61,229.8,62.8,229.8,64.8z"/>
	<path class="st0" d="M350.5,1.7v8.1l-0.3,0.1c-0.1-0.2-0.4-0.4-0.4-0.5c0-2.7,0-5.5,0-8.3h14c0,2.8,0,5.4,0,8.1
		c0,0.2-0.2,0.4-0.4,0.6c-0.1-0.2-0.4-0.5-0.4-0.7c0-2,0-3.9,0-5.9c0-0.5,0-1,0-1.6H350.5z"/>
	<path class="st0" d="M324.9,1.1h13.7c0.4,2.8,0.2,8.2-0.5,8.9V1.6h-12.6c0,1.4,0,2.9,0,4.3c0.1,1.3,0,2.6-0.1,3.9l-0.5,0V1.1z"/>
	<path class="st0" d="M271.5,1.1h13.7c0.4,2.4,0.2,8.2-0.5,9V1.7h-12.5c-0.3,2.7,0.1,5.5-0.2,8.2h-0.5V1.1z"/>
	<path class="st0" d="M110.8,9.9c-1.7-0.9-3.5-1.6-5.3-2.2c-1.9-0.2-3.9-0.2-5.8-0.1c0,0.5,0,1.1,0,1.6c0,0.2-0.3,0.4-0.4,0.6
		c-0.2-0.2-0.5-0.4-0.5-0.6c-0.1-0.5-0.1-1,0-1.5c0.1-0.3,0.5-0.8,0.8-0.8c2.4,0,4.7,0,7.1,0.2C108.3,7.4,109.9,8.4,110.8,9.9z"/>
	<path class="st0" d="M68.5,10c-0.3-0.2-0.8-0.4-1-0.7c-1.6-3.1-9-3.1-10.6,0c-0.1,0.3-0.6,0.4-1.2,0.8c0.7-2.3,2.8-3.8,5.2-3.8
		c3.1-0.1,6.1,0,7.8,3.3L68.5,10z"/>
	<path class="st0" d="M26.3,9.9c-0.3-0.2-0.8-0.2-0.9-0.5c-1.3-2.3-3.4-2.6-5.7-2.5c-1.9,0.1-3.6,0.6-4.6,2.5
		c-0.1,0.2-0.6,0.3-1,0.5c0.4-2,2.2-3.4,4.6-3.6C22.9,5.9,25.3,7,26.3,9.9z"/>
	<path class="st0" d="M108.8,58.7c-0.9,0.4-1.9,0.6-2.9,0.8c-2.1,0.1-4.2,0.1-6.4,0c-0.3,0-0.6-0.2-0.8-0.4
		c-0.1-0.2,0.1-0.5,0.2-0.8l0.8,0.3c0.1,0,0.2,0.1,0.3,0.1c2.3-0.1,4.6-0.1,6.9-0.3c0.6-0.1,1.1-0.2,1.7-0.3L108.8,58.7z"/>
	<path class="st0" d="M56.9,58.4c1.7,0.6,3.5,0.9,5.4,1.1c1.7-0.2,3.4-0.5,5.1-1.1C65.8,60.8,59.4,60.8,56.9,58.4z"/>
	<path class="st0" d="M15.2,58.2c3.1,1.8,7,1.8,10.1,0C23.4,60.8,17.2,60.8,15.2,58.2z"/>
	<path class="st0" d="M261,58.3c3.2,1.8,6.5,2,9.7,0C269,60.7,263.1,60.8,261,58.3z"/>
	<path class="st0" d="M339.5,58.3c3,1.9,6.9,1.8,9.8-0.3C348.2,60.6,341,60.8,339.5,58.3z"/>
	<g class="st1">
		<path class="st0" d="M8.2,80.7H0.5v-6.1H8c0.4,0,0.8,0.2,1.1,0.5c0.3,0.3,0.4,0.7,0.4,1.1c0,0.3-0.1,0.6-0.3,0.8
			c-0.2,0.2-0.4,0.4-0.7,0.6c0.3,0.1,0.6,0.3,0.9,0.6c0.2,0.3,0.3,0.6,0.3,1c0,0.4-0.1,0.8-0.4,1.1S8.7,80.7,8.2,80.7z M5.7,77
			c0.1,0,0.3-0.1,0.4-0.2c0.1-0.1,0.2-0.2,0.2-0.4c0-0.1,0-0.3-0.1-0.4C6,76,5.9,75.9,5.8,75.9H3.7v1H5.7z M6,79.3
			c0.2,0,0.3-0.1,0.4-0.2c0.1-0.1,0.2-0.3,0.2-0.4c0-0.2-0.1-0.3-0.2-0.4c-0.1-0.1-0.3-0.2-0.4-0.2H3.7v1.2H6z"/>
		<path class="st0" d="M19.7,80.7h-3.1l-1.5-1.9h-1.3v1.9h-3.2v-6.1h7.3c0.6,0,1.1,0.2,1.4,0.6s0.5,0.9,0.5,1.5
			c0,0.5-0.1,0.9-0.4,1.3c-0.3,0.4-0.7,0.6-1.2,0.7L19.7,80.7z M15.9,77.3c0.2,0,0.4-0.1,0.5-0.2s0.2-0.3,0.2-0.5
			c0-0.4-0.2-0.6-0.6-0.6h-2.2v1.3H15.9z"/>
		<path class="st0" d="M28.8,80.7h-8.2v-6.1h8.2V76h-5v1h4.5L28,78.2h-4.2v0.9h5V80.7z"/>
		<path class="st0" d="M38.9,80.7h-3.7l-3.7-4.1v4.1h-1.9v-6.1h3.7l3.6,4.1v-4.1h1.9V80.7z"/>
	</g>
	<g class="st1">
		<path class="st0" d="M46.5,80.7H40v-6.1h6.5c0.6,0,1.1,0.1,1.5,0.4s0.8,0.6,1,1.1c0.2,0.5,0.4,1,0.4,1.5s-0.1,1.1-0.4,1.5
			c-0.2,0.5-0.6,0.8-1,1.1S47,80.7,46.5,80.7z M44.6,79.2c0.5,0,0.8-0.2,1.1-0.5s0.4-0.7,0.4-1.1s-0.1-0.8-0.4-1.1
			C45.4,76.2,45,76,44.6,76h-1.4v3.2H44.6z"/>
	</g>
	<g class="st1">
		<path class="st0" d="M59.5,80.7h-3.3l-0.5-0.9h-3.9l-0.5,0.9h-2.1l3.4-6.1h3.6L59.5,80.7z M54.9,78.3l-1.2-2.1l-1.2,2.1H54.9z"/>
		<path class="st0" d="M69.2,80.7h-3.7l-3.7-4.1v4.1H60v-6.1h3.7l3.6,4.1v-4.1h1.9V80.7z"/>
		<path class="st0" d="M83.1,80.7h-7.7v-6.1h7.5c0.4,0,0.8,0.2,1.1,0.5c0.3,0.3,0.4,0.7,0.4,1.1c0,0.3-0.1,0.6-0.3,0.8
			c-0.2,0.2-0.4,0.4-0.7,0.6c0.3,0.1,0.6,0.3,0.9,0.6c0.2,0.3,0.3,0.6,0.3,1c0,0.4-0.1,0.8-0.4,1.1S83.6,80.7,83.1,80.7z M80.6,77
			c0.1,0,0.3-0.1,0.4-0.2c0.1-0.1,0.2-0.2,0.2-0.4c0-0.1,0-0.3-0.1-0.4c-0.1-0.1-0.2-0.2-0.3-0.2h-2.1v1H80.6z M80.9,79.3
			c0.2,0,0.3-0.1,0.4-0.2c0.1-0.1,0.2-0.3,0.2-0.4c0-0.2-0.1-0.3-0.2-0.4c-0.1-0.1-0.3-0.2-0.4-0.2h-2.2v1.2H80.9z"/>
		<path class="st0" d="M93.7,80.7h-8.2v-6.1h8.2V76h-5v1h4.5l-0.2,1.3h-4.2v0.9h5V80.7z"/>
		<path class="st0" d="M102.7,80.7h-8.2v-6.1h3.2v4.7h5V80.7z"/>
		<path class="st0" d="M111.6,80.7h-8.2v-6.1h3.2v4.7h5V80.7z"/>
		<path class="st0" d="M119.2,80.7H117l1.9-6.1h2.2L119.2,80.7z"/>
		<path class="st0" d="M123.6,80.7h-2.2l1.9-6.1h2.2L123.6,80.7z"/>
		<path class="st0" d="M135.9,80.9c-1.4,0-2.6-0.2-3.4-0.7c-0.9-0.5-1.4-1.4-1.4-2.6s0.5-2,1.4-2.6c0.8-0.5,1.9-0.7,3.4-0.7
			c0.8,0,1.5,0.1,2.2,0.2c0.7,0.2,1.2,0.4,1.7,0.8s0.7,0.9,0.8,1.6h-3.2c-0.1-0.4-0.2-0.7-0.5-0.9c-0.2-0.2-0.6-0.3-1-0.3
			c-0.6,0-1,0.1-1.2,0.4s-0.4,0.7-0.4,1.3s0.1,1,0.4,1.3s0.6,0.4,1.2,0.4c0.5,0,0.8-0.1,1-0.3c0.2-0.2,0.4-0.5,0.5-0.9h3.2
			c-0.1,0.7-0.4,1.2-0.8,1.6c-0.4,0.4-1,0.7-1.7,0.8C137.5,80.8,136.7,80.9,135.9,80.9z"/>
		<path class="st0" d="M150.6,80.7h-3.1l-1.5-1.9h-1.3v1.9h-3.2v-6.1h7.3c0.6,0,1.1,0.2,1.4,0.6s0.5,0.9,0.5,1.5
			c0,0.5-0.1,0.9-0.4,1.3c-0.3,0.4-0.7,0.6-1.2,0.7L150.6,80.7z M146.7,77.3c0.2,0,0.4-0.1,0.5-0.2s0.2-0.3,0.2-0.5
			c0-0.4-0.2-0.6-0.6-0.6h-2.2v1.3H146.7z"/>
		<path class="st0" d="M159.6,80.7h-8.2v-6.1h8.2V76h-5v1h4.5l-0.2,1.3h-4.2v0.9h5V80.7z"/>
	</g>
	<g class="st1">
		<path class="st0" d="M170.3,80.7h-3.3l-0.5-0.9h-3.9l-0.5,0.9H160l3.4-6.1h3.6L170.3,80.7z M165.8,78.3l-1.2-2.1l-1.2,2.1H165.8z"
			/>
	</g>
	<g class="st1">
		<path class="st0" d="M175.5,80.7h-3.2V76h-2.9v-1.5h8.9V76h-2.9V80.7z"/>
		<path class="st0" d="M182.2,80.7H179v-6.1h3.2V80.7z"/>
		<path class="st0" d="M189.2,80.7h-3.4l-3.1-6.1h3.3l2.1,4.2l2.1-4.2h2.1L189.2,80.7z"/>
		<path class="st0" d="M201,80.7h-8.2v-6.1h8.2V76h-5v1h4.5l-0.2,1.3H196v0.9h5V80.7z"/>
		<path class="st0" d="M211.4,80.9c-0.6,0-1.1,0-1.7-0.1s-1-0.1-1.5-0.3s-0.8-0.4-1.1-0.6c-0.3-0.3-0.4-0.7-0.4-1.1h3.2
			c0,0.2,0.1,0.4,0.2,0.5c0.1,0.1,0.3,0.2,0.5,0.2c0.2,0,0.4,0.1,0.7,0.1h0.3c0.3,0,0.5,0,0.7-0.1c0.2,0,0.3-0.2,0.3-0.4
			c0-0.2-0.2-0.3-0.5-0.4c-0.3-0.1-0.7-0.1-1.2-0.2c-0.6-0.1-1.2-0.2-1.8-0.3c-0.6-0.1-1.1-0.3-1.6-0.6c-0.5-0.3-0.7-0.7-0.7-1.3
			c0-0.4,0.1-0.8,0.4-1c0.2-0.3,0.6-0.5,1-0.6s0.9-0.2,1.5-0.2s1.1,0,1.7,0c0.6,0,1.1,0,1.7,0.1c0.5,0,1,0.1,1.4,0.3s0.8,0.4,1,0.6
			c0.3,0.3,0.4,0.7,0.4,1.1h-3.1c0-0.2-0.1-0.4-0.2-0.5c-0.1-0.1-0.3-0.2-0.5-0.2c-0.2,0-0.5-0.1-1-0.1c-0.3,0-0.5,0-0.7,0.1
			c-0.2,0-0.3,0.2-0.3,0.4v0.1c0,0.1,0.2,0.2,0.5,0.3c0.3,0.1,0.8,0.2,1.3,0.2c0.6,0.1,1.2,0.2,1.8,0.3s1.1,0.4,1.6,0.6
			c0.5,0.3,0.7,0.7,0.7,1.2c0,0.5-0.1,0.8-0.4,1.1s-0.6,0.5-1,0.6s-0.9,0.2-1.5,0.2C212.5,80.9,211.9,80.9,211.4,80.9z"/>
		<path class="st0" d="M221.4,80.9c-1.4,0-2.6-0.2-3.4-0.7c-1-0.5-1.4-1.4-1.4-2.6c0-1.2,0.5-2,1.4-2.6c0.8-0.5,2-0.7,3.4-0.7
			c1.4,0,2.6,0.2,3.4,0.7c1,0.5,1.4,1.4,1.4,2.6c0,1.2-0.5,2-1.4,2.6C223.9,80.7,222.8,80.9,221.4,80.9z M221.4,79.4
			c0.6,0,1-0.1,1.2-0.4s0.4-0.7,0.4-1.3s-0.1-1-0.4-1.3s-0.7-0.4-1.2-0.4s-1,0.1-1.2,0.4c-0.3,0.3-0.4,0.7-0.4,1.3s0.1,1,0.4,1.3
			C220.4,79.2,220.8,79.4,221.4,79.4z"/>
		<path class="st0" d="M230.2,80.7H227v-6.1h8.2V76h-5v1.2h4.6l-0.2,1.4h-4.4V80.7z"/>
		<path class="st0" d="M241.5,80.7h-3.2V76h-2.9v-1.5h8.9V76h-2.9V80.7z"/>
	</g>
	<g class="st1">
		<path class="st0" d="M255.5,80.7h-3.2l-1.2-2.9l-1,2.9h-3.2l-2.4-6.1h3.2l1.3,3.4l1.2-3.4h2.8l1.4,3.4l1.1-3.4h2L255.5,80.7z"/>
	</g>
	<g class="st1">
		<path class="st0" d="M267.1,80.7h-3.3l-0.5-0.9h-3.9l-0.5,0.9h-2.1l3.4-6.1h3.6L267.1,80.7z M262.5,78.3l-1.2-2.1l-1.2,2.1H262.5z
			"/>
		<path class="st0" d="M276.7,80.7h-3.1l-1.5-1.9h-1.3v1.9h-3.2v-6.1h7.3c0.6,0,1.1,0.2,1.4,0.6c0.4,0.4,0.5,0.9,0.5,1.5
			c0,0.5-0.2,0.9-0.5,1.3c-0.3,0.4-0.7,0.6-1.2,0.7L276.7,80.7z M272.9,77.3c0.2,0,0.4-0.1,0.5-0.2s0.2-0.3,0.2-0.5
			c0-0.4-0.2-0.6-0.6-0.6h-2.2v1.3H272.9z"/>
		<path class="st0" d="M285.8,80.7h-8.2v-6.1h8.2V76h-5v1h4.5l-0.2,1.3h-4.2v0.9h5V80.7z"/>
		<path class="st0" d="M300,80.7h-8.2v-6.1h8.2V76h-5v1h4.5l-0.2,1.3H295v0.9h5V80.7z"/>
		<path class="st0" d="M310.1,80.7h-3.7l-3.7-4.1v4.1h-1.9v-6.1h3.7l3.6,4.1v-4.1h1.9V80.7z"/>
		<path class="st0" d="M315.8,80.9c-1.4,0-2.6-0.2-3.4-0.7c-1-0.5-1.5-1.4-1.5-2.6s0.5-2,1.5-2.6c0.8-0.5,2-0.7,3.4-0.7
			c1.3,0,2.4,0.2,3.2,0.5c1,0.4,1.6,1,1.6,1.8h-3.3c-0.1-0.3-0.3-0.5-0.6-0.6c-0.2-0.1-0.6-0.1-0.9-0.1c-0.6,0-1,0.1-1.3,0.4
			s-0.4,0.7-0.4,1.3s0.1,1,0.4,1.3s0.7,0.4,1.3,0.4c0.8,0,1.3-0.3,1.5-0.8h-1.7l0.2-1.3h4.7v3.4h-1.4l-0.1-1.1
			c-0.3,0.4-0.8,0.7-1.3,1C317.2,80.8,316.6,80.9,315.8,80.9z"/>
		<path class="st0" d="M324.8,80.7h-3.2v-6.1h3.2V80.7z"/>
		<path class="st0" d="M335,80.7h-3.7l-3.7-4.1v4.1h-1.9v-6.1h3.7l3.6,4.1v-4.1h1.9V80.7z"/>
		<path class="st0" d="M344.3,80.7h-8.2v-6.1h8.2V76h-5v1h4.5l-0.2,1.3h-4.2v0.9h5V80.7z"/>
		<path class="st0" d="M353.4,80.7h-8.2v-6.1h8.2V76h-5v1h4.5l-0.2,1.3h-4.2v0.9h5V80.7z"/>
		<path class="st0" d="M363.4,80.7h-3.1l-1.5-1.9h-1.3v1.9h-3.2v-6.1h7.3c0.6,0,1.1,0.2,1.4,0.6c0.4,0.4,0.5,0.9,0.5,1.5
			c0,0.5-0.2,0.9-0.5,1.3c-0.3,0.4-0.7,0.6-1.2,0.7L363.4,80.7z M359.5,77.3c0.2,0,0.4-0.1,0.5-0.2s0.2-0.3,0.2-0.5
			c0-0.4-0.2-0.6-0.6-0.6h-2.2v1.3H359.5z"/>
	</g>
</g>
</svg>
